<?xml version="1.0" encoding="UTF-8"?> <!-- Generator: Adobe Illustrator 24.1.0, SVG Export Plug-In . SVG Version: 6.00 Build 0) --> <svg xmlns="http://www.w3.org/2000/svg" xmlns:xlink="http://www.w3.org/1999/xlink" version="1.1" id="icon-no-controller-hardware_1_" x="0px" y="0px" viewBox="0 0 200 200" style="enable-background:new 0 0 200 200;" xml:space="preserve"> <style type="text/css"> .st0{fill:none;} .st1{fill:none;stroke:#67B346;stroke-width:4;stroke-linecap:round;stroke-linejoin:round;} .st2{fill:none;stroke:#393939;stroke-width:4;stroke-linecap:round;stroke-linejoin:round;} </style> <path id="background" class="st0" d="M24,0h152c13.3,0,24,10.7,24,24v152c0,13.3-10.7,24-24,24H24c-13.3,0-24-10.7-24-24V24 C0,10.7,10.7,0,24,0z"></path> <path id="cloud" class="st1" d="M63.7,127.8c-11-0.1-19.9-9.2-19.7-20.3c0.1-8.8,6-16.5,14.5-19c0-0.2,0-0.4,0-0.6 c0-7.7,6.3-13.9,14-13.8c4.1,0,7.9,1.8,10.5,4.9c4.6-14.7,20.2-22.9,34.9-18.3c11.6,3.6,19.6,14.4,19.6,26.6c0,0.2,0,0.4,0,0.5 c11,1.1,19,10.9,18,21.9c-1,9.9-9.1,17.7-19.1,18H63.7z"></path> <circle id="circle" class="st2" cx="100" cy="100" r="75"></circle> </svg> 