<?xml version="1.0" encoding="UTF-8"?> <!-- Generator: Adobe Illustrator 24.1.0, SVG Export Plug-In . SVG Version: 6.00 Build 0) --> <svg xmlns="http://www.w3.org/2000/svg" xmlns:xlink="http://www.w3.org/1999/xlink" version="1.1" id="icon-firmware-always-up-to-date_1_" x="0px" y="0px" viewBox="0 0 200 200" style="enable-background:new 0 0 200 200;" xml:space="preserve"> <style type="text/css"> .st0{fill:none;} .st1{fill:none;stroke:#67B346;stroke-width:4;stroke-linecap:round;stroke-linejoin:round;} .st2{fill:#67B346;} .st3{fill:none;stroke:#393939;stroke-width:4;stroke-linecap:round;stroke-linejoin:round;} </style> <path id="background" class="st0" d="M24,0h152c13.3,0,24,10.7,24,24v152c0,13.3-10.7,24-24,24H24c-13.3,0-24-10.7-24-24V24 C0,10.7,10.7,0,24,0z"></path> <path id="arrow" class="st1" d="M100,50v56 M87.8,93.8L100,106l12.2-12.2"></path> <path id="dots" class="st2" d="M142.2,109c0,2.2-1.8,4-4,4s-4-1.8-4-4s1.8-4,4-4S142.2,106.8,142.2,109z M130.2,109c0,2.2-1.8,4-4,4 s-4-1.8-4-4s1.8-4,4-4S130.2,106.8,130.2,109z"></path> <path id="lines-gray" class="st3" d="M166,64.3c19.7,36.4,6.2,81.9-30.2,101.7C106.6,181.8,70.5,176.5,47,153 c-1.5-1.5-2.9-3-4.2-4.6 M92,80.3H56.2c-3.3,0-6,2.7-6,6V115c0,3.3,2.7,6,6,6h88c3.3,0,6-2.7,6-6V86.3c0-3.3-2.7-6-6-6H108 M42.7,165.6v-17.2h17.2 M157.3,51.6c-1.3-1.6-2.8-3.1-4.2-4.6C123.8,17.6,76.3,17.6,47,46.8C23.4,70.3,18.1,106.5,34,135.8 M157.3,34.4v17.2h-17.2"></path> </svg> 