<?xml version="1.0" encoding="UTF-8"?> <!-- Generator: Adobe Illustrator 24.1.0, SVG Export Plug-In . SVG Version: 6.00 Build 0) --> <svg xmlns="http://www.w3.org/2000/svg" xmlns:xlink="http://www.w3.org/1999/xlink" version="1.1" id="icon-location-analytics_1_" x="0px" y="0px" viewBox="0 0 200 200" style="enable-background:new 0 0 200 200;" xml:space="preserve"> <style type="text/css"> .st0{fill:none;} .st1{fill:none;stroke:#67B346;stroke-width:4;stroke-linecap:round;stroke-linejoin:round;} .st2{fill:none;stroke:#393939;stroke-width:4;stroke-linecap:round;stroke-linejoin:round;} </style> <path id="background" class="st0" d="M24,0h152c13.3,0,24,10.7,24,24v152c0,13.3-10.7,24-24,24H24c-13.3,0-24-10.7-24-24V24 C0,10.7,10.7,0,24,0z"></path> <path id="data-lines" class="st1" d="M114.1,111.4v-41h11v33.7 M105.8,113.7V58.9H94.6v54.9 M75.3,104.4V79.2h11v32.2"></path> <path id="location-marker" class="st2" d="M100,175L100,175c0,0-34-50-45.8-70.3C39.5,79.4,48.1,47,73.4,32.3s57.8-6.1,72.4,19.3 c9.5,16.4,9.5,36.7,0,53.2C134,125,100,175,100,175 M136.3,78c0-20-16.2-36.2-36.2-36.3C80,41.7,63.8,58,63.8,78 c0,20,16.2,36.2,36.2,36.3c0,0,0,0,0,0C120.1,114.2,136.3,98,136.3,78L136.3,78z"></path> </svg> 