<?xml version="1.0" encoding="UTF-8"?> <!-- Generator: Adobe Illustrator 24.1.0, SVG Export Plug-In . SVG Version: 6.00 Build 0) --> <svg xmlns="http://www.w3.org/2000/svg" xmlns:xlink="http://www.w3.org/1999/xlink" version="1.1" id="icon-remote-live-tools_1_" x="0px" y="0px" viewBox="0 0 200 200" style="enable-background:new 0 0 200 200;" xml:space="preserve"> <style type="text/css"> .st0{fill:none;} .st1{fill:none;stroke:#393939;stroke-width:4;stroke-linecap:round;stroke-linejoin:round;} .st2{fill:none;stroke:#67B346;stroke-width:4;stroke-linecap:round;stroke-linejoin:round;} </style> <path id="background" class="st0" d="M24,0h152c13.3,0,24,10.7,24,24v152c0,13.3-10.7,24-24,24H24c-13.3,0-24-10.7-24-24V24 C0,10.7,10.7,0,24,0z"></path> <path id="computer" class="st1" d="M100.3,150.4V175 M131.4,175H69.2 M56,63H31c-3.3,0-6,2.7-6,6v75.4c0,3.3,2.7,6,6,6h138 c3.3,0,6-2.7,6-6V69c0-3.3-2.7-6-6-6h-25 M79,63h42 M79,75h42 M56,75H37v63.4h126V75h-19"></path> <path id="gear" class="st2" d="M136.1,77.4c-0.9,4-2.5,7.8-4.6,11.2l4.6,6.6l-9.8,9.8l-6.6-4.6c-3.5,2.2-7.2,3.7-11.2,4.6l-1.4,7.9 H93.1l-1.4-7.9c-4-0.9-7.8-2.5-11.2-4.6l-6.6,4.6L64,95.2l4.6-6.6c-2.2-3.5-3.7-7.2-4.6-11.2L56,75.9V62.1l7.9-1.4 c0.9-4,2.5-7.8,4.7-11.2L64,42.8l9.8-9.8l6.6,4.6c3.5-2.2,7.2-3.7,11.2-4.7l1.4-7.9h13.9l1.4,7.9c4,0.9,7.8,2.5,11.2,4.7l6.6-4.6 l9.8,9.8l-4.6,6.6c2.2,3.5,3.7,7.2,4.6,11.2l7.9,1.4v13.9L136.1,77.4z M100,47.1c-12.1,0-21.9,9.8-21.9,21.9s9.8,21.9,21.9,21.9 s21.9-9.8,21.9-21.9c0,0,0,0,0,0C121.9,56.9,112.1,47.1,100,47.1z"></path> </svg> 