<?xml version="1.0" encoding="UTF-8"?> <!-- Generator: Adobe Illustrator 24.1.0, SVG Export Plug-In . SVG Version: 6.00 Build 0) --> <svg xmlns="http://www.w3.org/2000/svg" xmlns:xlink="http://www.w3.org/1999/xlink" version="1.1" id="Layer_1" x="0px" y="0px" viewBox="0 0 200 200" style="enable-background:new 0 0 200 200;" xml:space="preserve"> <style type="text/css"> .st0{fill:none;} .st1{fill:#67B346;} .st2{fill:none;stroke:#393939;stroke-width:4;stroke-linecap:round;stroke-linejoin:round;} .st3{fill:none;stroke:#67B346;stroke-width:4;stroke-linecap:round;stroke-linejoin:round;} </style> <path id="background" class="st0" d="M176,200H24c-13.3,0-24-10.7-24-24V24C0,10.7,10.7,0,24,0h152c13.3,0,24,10.7,24,24v152 C200,189.3,189.3,200,176,200z"></path> <path id="dots" class="st1" d="M40.8,37c0,2.2-1.8,4-4,4s-4-1.8-4-4s1.8-4,4-4S40.8,34.8,40.8,37z M50.5,33c-2.2,0-4,1.8-4,4 s1.8,4,4,4s4-1.8,4-4S52.7,33,50.5,33z M64.2,33c-2.2,0-4,1.8-4,4s1.8,4,4,4c2.2,0,4-1.8,4-4S66.4,33,64.2,33z"></path> <path id="lines-gray" class="st2" d="M31.1,134.7L31.1,134.7c-3.4,0-6.1-2.7-6.1-6.1V31c0-3.3,2.7-6,6-6h138c3.3,0,6,2.7,6,6v97.6 c0,3.4-2.7,6.1-6.1,6.1h0l0,0 M140.2,134.7h17.1 M80,134.7h40 M100,94.6V77.4 M59.8,134.9H42.7 M128.4,106.3l12.1-12.1 M59.4,94.3 l12.1,12.1 M79.2,37h84.1 M25,49h150"></path> <path id="api-gear" class="st3" d="M133,142.4c-0.8,3.6-2.3,7.1-4.2,10.2l4.2,6.1l-9,9l-6-4.2c-3.2,2-6.6,3.4-10.2,4.2l-1.3,7.2 H93.7l-1.3-7.2c-3.6-0.8-7.1-2.3-10.2-4.3l-6,4.2l-9-9l4.2-6.1c-2-3.1-3.4-6.6-4.3-10.2l-7.2-1.3v-12.7l7.2-1.3 c0.8-3.6,2.3-7.1,4.2-10.2l-4.2-6l9-9l6,4.2c3.2-2,6.6-3.4,10.2-4.2l1.3-7.2h12.7l1.3,7.2c3.6,0.8,7.1,2.2,10.3,4.2l6-4.2l9,9 l-4.2,6c2,3.2,3.4,6.6,4.3,10.3l7.2,1.3v12.7L133,142.4z M100,114.8c-11,0-20,9-20,20s9,20,20,20s20-9,20-20 C120,123.7,111,114.8,100,114.8z M168.9,134.8c0-3.2-2.6-5.8-5.8-5.8s-5.8,2.6-5.8,5.8c0,3.2,2.6,5.8,5.8,5.8c0,0,0,0,0,0 C166.3,140.6,168.9,138,168.9,134.8L168.9,134.8z M100.1,65.8c-3.2,0-5.8,2.6-5.8,5.8s2.6,5.8,5.8,5.8c3.2,0,5.8-2.6,5.8-5.8 C105.9,68.4,103.3,65.8,100.1,65.8C100.1,65.8,100.1,65.8,100.1,65.8z M31.1,134.8c0,3.2,2.6,5.8,5.8,5.8s5.8-2.6,5.8-5.8 c0-3.2-2.6-5.8-5.8-5.8C33.7,129,31.1,131.6,31.1,134.8L31.1,134.8z M148.8,86.1c-2.3-2.3-5.9-2.3-8.2,0s-2.3,5.9,0,8.2 c2.3,2.3,5.9,2.3,8.2,0c0,0,0,0,0,0C151.1,92,151.1,88.4,148.8,86.1C148.8,86.1,148.8,86.1,148.8,86.1z M51.2,86.1 c-2.3,2.3-2.3,5.9,0,8.2s5.9,2.3,8.2,0c2.3-2.3,2.3-5.9,0-8.2c0,0,0,0,0,0C57.2,83.8,53.5,83.8,51.2,86.1C51.3,86,51.3,86,51.2,86.1 L51.2,86.1z"></path> </svg> 