<?xml version="1.0" encoding="UTF-8"?> <!-- Generator: Adobe Illustrator 24.1.0, SVG Export Plug-In . SVG Version: 6.00 Build 0) --> <svg xmlns="http://www.w3.org/2000/svg" xmlns:xlink="http://www.w3.org/1999/xlink" version="1.1" id="icon-provision_1_" x="0px" y="0px" viewBox="0 0 200 200" style="enable-background:new 0 0 200 200;" xml:space="preserve"> <style type="text/css"> .st0{fill:none;} .st1{fill:#393939;} .st2{fill:none;stroke:#67B346;stroke-width:4;stroke-linecap:round;stroke-linejoin:round;} .st3{fill:none;stroke:#393939;stroke-width:4;stroke-linecap:round;stroke-linejoin:round;} </style> <path id="background" class="st0" d="M24,0h152c13.3,0,24,10.7,24,24v152c0,13.3-10.7,24-24,24H24c-13.3,0-24-10.7-24-24V24 C0,10.7,10.7,0,24,0z"></path> <path id="dot" class="st1" d="M98,82.1c0,1.1,0.9,2,2,2s2-0.9,2-2s-0.9-2-2-2S98,81,98,82.1z"></path> <path id="lines-green" class="st2" d="M100,125c-13.8,0-25,11.2-25,25s11.2,25,25,25s25-11.2,25-25S113.8,125,100,125L100,125z M108.9,154.1H91.1 M108.9,138.1H91.1 M144,100v50h-19 M112.2,112.2L100,100l-12.2,12.2 M156.1,112.2L144,100l-12.1,12.2 M68.2,112.2L56,100l-12.1,12.2 M100,125v-25 M75,150H56v-50"></path> <path id="lines-gray" class="st3" d="M144,25c-8.1,0-14.7,6.6-14.7,14.6s6.6,14.7,14.7,14.7s14.6-6.6,14.6-14.7c0,0,0,0,0,0 C158.6,31.6,152.1,25,144,25C144,25,144,25,144,25z M175,71.4c-10.8-17.1-33.4-22.3-50.5-11.5c-4.6,2.9-8.6,6.8-11.5,11.5 M62.3,78.2v12.3 M77.9,90.5H46.8 M100,51.2V31c0-3.3-2.7-6-6-6H31c-3.3,0-6,2.7-6,6v41.2c0,3.3,2.7,6,6,6h56 M106.9,51.2H93 c-3.3,0-6,2.7-6,6v27.2c0,3.3,2.7,6,6,6h14c3.3,0,6-2.7,6-6V57.2C113,53.9,110.3,51.2,106.9,51.2L106.9,51.2z M108.8,162.1H91.1 M108.9,146.1H91.1"></path> </svg> 